<svg aria-hidden="true" style="position: absolute; width: 0; height: 0; overflow: hidden;" version="1.1" xmlns="http://www.w3.org/2000/svg" xmlns:xlink="http://www.w3.org/1999/xlink">
<defs>
<symbol id="icon-arrow" viewBox="0 0 32 32"> 
<path stroke-linejoin="round" stroke-linecap="round" stroke-miterlimit="4" stroke-width="2.6" d="M15 28l13-13M28 15l-13-13M28 15h-26"></path> 
</symbol>
<symbol id="icon-burger-menu" viewBox="0 0 32 32">
<path stroke-linejoin="round" stroke-linecap="round" stroke-miterlimit="4" stroke-width="2" d="M28 13.333h-24"></path>
<path stroke-linejoin="round" stroke-linecap="round" stroke-miterlimit="4" stroke-width="2" d="M28 8h-24"></path>
<path stroke-linejoin="round" stroke-linecap="round" stroke-miterlimit="4" stroke-width="2" d="M28 18.667h-24"></path>
<path stroke-linejoin="round" stroke-linecap="round" stroke-miterlimit="4" stroke-width="2" d="M28 24h-24"></path>
</symbol>
<symbol id="icon-close-btn" viewBox="0 0 32 32">
<path stroke-linejoin="round" stroke-linecap="round" stroke-miterlimit="4" stroke-width="2.2857" d="M22.667 9.333l-13.333 13.333M9.333 9.333l13.333 13.333"></path>
</symbol>
<symbol id="icon-commas" viewBox="0 0 32 32">
<path d="M8.201 17.469c1.546-0.613 2.785-0.452 3.719 0.481s1.21 2.421 0.831 4.463c-0.292 1.517-0.933 2.683-1.925 3.5-0.963 0.787-2.085 1.181-3.369 1.181-1.75 0-2.96-0.671-3.631-2.013-0.671-1.371-0.802-3.208-0.394-5.512 0.233-1.254 0.613-2.523 1.137-3.806s1.225-2.596 2.1-3.938c0.875-1.342 2.013-2.508 3.413-3.5s2.946-1.633 4.637-1.925l-0.437 4.638c-1.429 0.292-2.698 1.035-3.806 2.231-1.108 1.167-1.867 2.567-2.275 4.2zM21.37 17.469c1.546-0.613 2.785-0.452 3.719 0.481s1.21 2.421 0.831 4.463c-0.292 1.517-0.933 2.683-1.925 3.5-0.963 0.787-2.085 1.181-3.369 1.181-1.75 0-2.96-0.671-3.631-2.013-0.671-1.371-0.802-3.208-0.394-5.512 0.233-1.254 0.613-2.523 1.137-3.806s1.225-2.596 2.1-3.938c0.875-1.342 2.013-2.508 3.413-3.5s2.946-1.633 4.637-1.925l-0.437 4.638c-1.429 0.292-2.698 1.035-3.806 2.231-1.108 1.167-1.867 2.567-2.275 4.2z"></path>
</symbol>
<symbol id="icon-dumb bell" viewBox="0 0 32 32">
<path d="M7.36 9.143h-1.92c-0.532 0-0.96 0.459-0.96 1.029v4.457h-0.96c-0.176 0-0.32 0.154-0.32 0.343v2.057c0 0.188 0.144 0.343 0.32 0.343h0.96v4.457c0 0.57 0.428 1.028 0.96 1.028h1.92c0.532 0 0.96-0.459 0.96-1.028v-11.657c0-0.57-0.428-1.029-0.96-1.029zM28.48 14.629h-0.96v-4.457c0-0.57-0.428-1.029-0.96-1.029h-1.92c-0.532 0-0.96 0.459-0.96 1.029v11.657c0 0.57 0.428 1.028 0.96 1.028h1.92c0.532 0 0.96-0.459 0.96-1.028v-4.457h0.96c0.176 0 0.32-0.154 0.32-0.343v-2.057c0-0.189-0.144-0.343-0.32-0.343zM21.44 6.4h-1.92c-0.532 0-0.96 0.459-0.96 1.029v7.2h-5.12v-7.2c0-0.57-0.428-1.029-0.96-1.029h-1.92c-0.532 0-0.96 0.459-0.96 1.029v17.143c0 0.57 0.428 1.029 0.96 1.029h1.92c0.532 0 0.96-0.459 0.96-1.029v-7.2h5.12v7.2c0 0.57 0.428 1.029 0.96 1.029h1.92c0.532 0 0.96-0.459 0.96-1.029v-17.143c0-0.57-0.428-1.029-0.96-1.029z"></path>
</symbol>
<symbol id="icon-facebook" viewBox="0 0 32 32">
<path d="M19.52 4.64c0.24 0 0.48 0 0.96 0v3.6c-0.24 0-0.72 0-1.2 0s-0.96 0-1.2 0.24c-0.24 0.24-0.24 0.48-0.24 1.040 0 0.48 0 0.8 0 1.28h2.64v3.040h-2.64v13.2h-4.080v-13.28h-2.16v-3.040h2.16v-1.040c0-1.76 0.24-3.040 0.72-3.6 0.72-1.040 2.16-1.52 4.32-1.52 0.24 0.080 0.48 0.080 0.72 0.080z"></path>
</symbol>
<symbol id="icon-heart" viewBox="0 0 32 32">
<path stroke-linejoin="round" stroke-linecap="round" stroke-miterlimit="4" stroke-width="2.4" d="M27.787 6.147c-0.681-0.681-1.49-1.222-2.38-1.591s-1.844-0.559-2.807-0.559c-0.963 0-1.917 0.19-2.807 0.559s-1.699 0.909-2.38 1.591l-1.413 1.413-1.413-1.413c-1.376-1.376-3.241-2.148-5.187-2.148s-3.811 0.773-5.187 2.148c-1.376 1.376-2.148 3.241-2.148 5.187s0.773 3.811 2.148 5.187l11.787 11.787 11.787-11.787c0.681-0.681 1.222-1.49 1.591-2.38s0.559-1.844 0.559-2.807c0-0.963-0.19-1.917-0.559-2.807s-0.909-1.699-1.591-2.38z"></path>
</symbol>
<symbol id="icon-instagram" viewBox="0 0 32 32">
<path d="M28.717 10.756c-0.016-1.074-0.215-2.14-0.596-3.145-0.667-1.716-2.024-3.073-3.743-3.737-0.994-0.373-2.044-0.573-3.108-0.596-1.368-0.061-1.801-0.078-5.273-0.078s-3.917 0-5.274 0.078c-1.062 0.023-2.112 0.223-3.106 0.596-1.719 0.664-3.078 2.021-3.743 3.737-0.374 0.992-0.576 2.041-0.596 3.101-0.061 1.367-0.080 1.8-0.080 5.265s0 3.909 0.080 5.265c0.021 1.062 0.222 2.109 0.596 3.104 0.667 1.714 2.024 3.071 3.744 3.735 0.989 0.386 2.040 0.605 3.106 0.639 1.369 0.061 1.803 0.080 5.274 0.080s3.916 0 5.274-0.080c1.062-0.021 2.113-0.221 3.108-0.595 1.719-0.666 3.076-2.022 3.743-3.737 0.374-0.994 0.574-2.041 0.596-3.104 0.061-1.365 0.080-1.798 0.080-5.265-0.003-3.466-0.003-3.906-0.082-5.264zM15.99 22.531c-3.631 0-6.572-2.936-6.572-6.561s2.941-6.561 6.572-6.561c3.628 0 6.572 2.936 6.572 6.561s-2.944 6.561-6.572 6.561zM22.823 10.696c-0.849 0-1.532-0.684-1.532-1.53s0.684-1.53 1.532-1.53c0.846 0 1.531 0.684 1.531 1.53s-0.685 1.53-1.531 1.53z"></path>
<path d="M15.992 19.976c2.211 0 4.004-1.793 4.004-4.004s-1.793-4.004-4.004-4.004c-2.211 0-4.004 1.793-4.004 4.004s1.793 4.004 4.004 4.004z"></path>
</symbol>
<symbol id="icon-logo" viewBox="0 0 176 32">
<path d="M6.64 17.707l-6.64-11.040h3.973l4.453 7.653h0.053l4.453-7.653h3.973l-6.64 11.040v7.627h-3.627v-7.627z"></path>
<path d="M16.894 22.267v-12.533l3.067-3.067h9.6l3.067 3.067v12.533l-3.067 3.067h-9.6l-3.067-3.067zM27.64 22.24l1.36-1.36v-9.76l-1.36-1.36h-5.76l-1.36 1.36v9.76l1.36 1.36h5.76z"></path>
<path d="M35.166 22.133v-15.467h3.627v14.213l1.36 1.36h5.227l1.36-1.36v-14.213h3.627v15.467l-3.2 3.2h-8.8l-3.2-3.2z"></path>
<path d="M67.837 19.147v6.187h-3.627v-5.36l-1.6-1.787h-5.813v7.147h-3.627v-18.667h11.707l2.853 2.88v5.653l-1.813 1.84 1.92 2.107zM56.797 15.2h6.427l0.933-0.933v-3.627l-0.933-0.933h-6.427v5.493z"></path>
<path d="M77.098 6.667h13.493v3.067h-9.867v4.72h9.093v3.013h-9.093v4.8h9.867v3.067h-13.493v-18.667z"></path>
<path d="M92.603 6.667h3.253l8.32 12.667h0.053v-12.667h3.493v18.667h-3.253l-8.32-12.64h-0.053v12.64h-3.493v-18.667z"></path>
<path d="M110.53 6.667h13.493v3.067h-9.867v4.72h9.093v3.013h-9.093v4.8h9.867v3.067h-13.493v-18.667z"></path>
<path d="M140.703 19.147v6.187h-3.627v-5.36l-1.6-1.787h-5.814v7.147h-3.627v-18.667h11.707l2.853 2.88v5.653l-1.813 1.84 1.92 2.107zM129.662 15.2h6.427l0.933-0.933v-3.627l-0.933-0.933h-6.427v5.493z"></path>
<path d="M143.097 22.267v-12.533l3.067-3.067h9.28l3.013 3.013v2.853h-3.627v-1.52l-1.253-1.253h-5.493l-1.36 1.36v9.76l1.36 1.36h5.547l1.307-1.307v-2.907h-4v-3.093h7.52v7.333l-3.067 3.067h-9.227l-3.067-3.067z"></path>
<path d="M165.104 17.707l-6.64-11.040h3.973l4.453 7.653h0.053l4.453-7.653h3.973l-6.64 11.040v7.627h-3.627v-7.627z"></path>
</symbol>
<symbol id="icon-running-man" viewBox="0 0 32 32">
<path d="M25.098 11.634c-0.279-0.334-0.777-0.378-1.111-0.099l-2.188 1.838-1.006-2.493c-0.036-0.094-0.090-0.172-0.153-0.241-0.206-0.457-0.563-0.85-1.055-1.078-0.214-0.097-0.434-0.149-0.655-0.174-0.049-0.025-0.093-0.059-0.148-0.076l-3.85-1.073c-0.216-0.059-0.433-0.021-0.611 0.083-0.211 0.072-0.393 0.225-0.479 0.448l-1.45 3.728c-0.157 0.405 0.044 0.863 0.451 1.022 0.404 0.157 0.863-0.045 1.021-0.452l1.225-3.148 1.754 0.488c-0.043 0.069-0.089 0.134-0.124 0.208l-2.248 4.873c-0.032 0.072-0.050 0.144-0.073 0.218l-2.732 4.58-4.572 1.529c-0.518 0.387-0.627 1.116-0.245 1.633 0.385 0.519 1.116 0.628 1.632 0.246l4.679-1.612c0.143-0.104 0.247-0.24 0.326-0.387 0.059-0.062 0.126-0.112 0.171-0.189l1.629-2.731 2.891 2.464-3.094 3.487c-0.426 0.481-0.383 1.221 0.099 1.646 0.482 0.429 1.22 0.383 1.648-0.099l3.861-4.349c0.12-0.134 0.192-0.289 0.24-0.451 0.029-0.088 0.029-0.179 0.036-0.27 0-0.046 0.017-0.088 0.014-0.131-0.010-0.319-0.14-0.628-0.401-0.849l-2.661-2.269c0.192-0.183 0.355-0.4 0.473-0.655l1.724-3.733 0.552 1.471c0.023 0.131 0.067 0.259 0.159 0.366 0.083 0.099 0.189 0.165 0.303 0.211 0.012 0.006 0.025 0.007 0.039 0.010 0.072 0.025 0.144 0.050 0.219 0.053 0.089 0.008 0.179-0.003 0.27-0.029 0.002-0.001 0.003-0.001 0.003-0.001 0.024-0.006 0.049-0.001 0.073-0.012 0.128-0.048 0.226-0.131 0.311-0.226l3.14-2.665c0.334-0.281 0.193-0.777-0.088-1.111z"></path>
<path d="M21.126 9.735c1.215 0 2.201-0.985 2.201-2.201s-0.985-2.201-2.201-2.201c-1.215 0-2.201 0.985-2.201 2.201s0.985 2.201 2.201 2.201z"></path>
</symbol>
<svg id="icon-search" viewBox="0 0 18 18" fill="none" xmlns="http://www.w3.org/2000/svg">
<path d="M8.25 14.25C11.5637 14.25 14.25 11.5637 14.25 8.25C14.25 4.93629 11.5637 2.25 8.25 2.25C4.93629 2.25 2.25 4.93629 2.25 8.25C2.25 11.5637 4.93629 14.25 8.25 14.25Z" stroke-width="1.5" stroke-linecap="round" stroke-linejoin="round"/>
<path d="M15.7498 15.75L12.4873 12.4875" stroke-width="1.5" stroke-linecap="round" stroke-linejoin="round"/>
</svg>
<symbol id="icon-star" viewBox="0 0 34 32">
<path d="M14.89 2.282c0.737-2.268 3.945-2.268 4.682 0l2.080 6.402c0.33 1.014 1.275 1.701 2.341 1.701h6.731c2.384 0 3.376 3.051 1.447 4.453l-5.446 3.957c-0.863 0.627-1.224 1.738-0.894 2.752l2.080 6.402c0.737 2.268-1.859 4.154-3.788 2.752l-5.446-3.957c-0.863-0.627-2.031-0.627-2.894 0l-5.446 3.957c-1.929 1.402-4.525-0.484-3.788-2.752l2.080-6.402c0.33-1.014-0.031-2.125-0.894-2.752l-5.446-3.957c-1.929-1.402-0.938-4.453 1.447-4.453h6.731c1.066 0 2.012-0.687 2.341-1.701l2.080-6.402z"></path>
</symbol>
<symbol id="icon-star-rating" width="20" height="19" viewBox="0 0 20 19">
  <path d="M9.04894 0.927052C9.3483 0.00574112 10.6517 0.00573993 10.9511 0.927051L12.4697 5.60081C12.6035 6.01284 12.9875 6.2918 13.4207 6.2918H18.335C19.3037 6.2918 19.7065 7.53141 18.9228 8.10081L14.947 10.9894C14.5966 11.244 14.4499 11.6954 14.5838 12.1074L16.1024 16.7812C16.4017 17.7025 15.3472 18.4686 14.5635 17.8992L10.5878 15.0106C10.2373 14.756 9.7627 14.756 9.41221 15.0106L5.43648 17.8992C4.65276 18.4686 3.59828 17.7025 3.89763 16.7812L5.41623 12.1074C5.55011 11.6954 5.40345 11.244 5.05296 10.9894L1.07722 8.10081C0.293507 7.53141 0.696283 6.2918 1.66501 6.2918H6.57929C7.01252 6.2918 7.39647 6.01284 7.53035 5.60081L9.04894 0.927052Z"/>
</symbol>
<symbol id="icon-sun" viewBox="0 0 32 32">
<path d="M14.254 13.505l0.363 0.372-4.466-12.797 5.321 12.466 0.018-0.52 0.441-13.027 0.441 13.026 0.018 0.52 5.321-12.466-4.466 12.797 9.465-9.702-8.787 10.32 12.331-5.628-11.922 6.449 13.531-0.793-13.446 1.707 12.904 4.148-13.155-3.266 10.534 8.53-11.087-7.798 6.741 11.759-7.521-11.276 2.038 13.4-2.94-13.232-2.94 13.232 2.038-13.4-7.521 11.276 6.741-11.759-11.087 7.798 10.534-8.53-13.155 3.266 12.904-4.148-13.446-1.707 13.531 0.793-11.922-6.449 12.331 5.628-8.787-10.32 9.102 9.33zM15.185 14.071l-0.646 0.4-0.458 0.607-0.208 0.731 0.070 0.757 0.339 0.68 0.562 0.512 0.709 0.275h0.76l0.709-0.275 0.562-0.512 0.339-0.68 0.070-0.757-0.208-0.731-0.458-0.607-0.646-0.4-0.747-0.14-0.747 0.14z"></path>
</symbol>
<symbol id="icon-trash" viewBox="0 0 32 32">
<path stroke-linejoin="round" stroke-linecap="round" stroke-miterlimit="4" stroke-width="2.6" d="M21.333 8v-1.067c0-1.493 0-2.24-0.291-2.811-0.256-0.502-0.664-0.91-1.165-1.165-0.57-0.291-1.317-0.291-2.811-0.291h-2.133c-1.493 0-2.24 0-2.811 0.291-0.502 0.256-0.91 0.664-1.165 1.165-0.291 0.57-0.291 1.317-0.291 2.811v1.067M13.333 15.333v6.667M18.667 15.333v6.667M4 8h24M25.333 8v14.933c0 2.24 0 3.36-0.436 4.216-0.384 0.753-0.995 1.365-1.748 1.748-0.856 0.436-1.976 0.436-4.216 0.436h-5.867c-2.24 0-3.36 0-4.216-0.436-0.753-0.383-1.365-0.995-1.748-1.748-0.436-0.856-0.436-1.976-0.436-4.216v-14.933"></path>
</symbol>
<symbol id="icon-youtube" viewBox="0 0 32 32">
<path d="M24.24 6c-1.36-0.080-4.16-0.16-8.4-0.16h-0.56c-4.080 0-6.8 0.080-8.16 0.24-1.84 0.16-3.12 0.64-3.84 1.28-0.64 0.56-1.12 1.6-1.28 2.96-0.080 0.88-0.16 2.72-0.16 5.52v0.4c0 2.64 0.080 4.48 0.24 5.36 0.24 1.28 0.64 2.24 1.44 2.8 0.8 0.64 2.16 1.040 4.080 1.2 1.36 0.080 4.16 0.16 8.4 0.16h0.56c4.080 0 6.8-0.080 8.16-0.24 1.84-0.16 3.12-0.64 3.84-1.28 0.64-0.56 1.12-1.6 1.28-2.96 0.080-0.88 0.16-2.72 0.16-5.52v-0.4c0-2.64-0.080-4.48-0.24-5.36-0.24-1.28-0.64-2.24-1.44-2.8-0.8-0.64-2.16-1.040-4.080-1.2zM21.12 15.84l-8.8 5.28v-10.56l8.8 5.28z"></path>
</symbol>
<symbol id="icon-next" viewBox="0 0 19 32">
<path d="M11.111 17.578c0.208-0.207 0.374-0.452 0.486-0.723s0.171-0.561 0.171-0.855c0-0.293-0.058-0.584-0.171-0.855s-0.278-0.517-0.486-0.723l-10.2-10.178c-0.208-0.207-0.374-0.452-0.486-0.723s-0.171-0.561-0.171-0.855c0-0.293 0.058-0.584 0.171-0.855s0.278-0.517 0.486-0.723c0.416-0.414 0.98-0.646 1.567-0.646s1.15 0.232 1.567 0.646l10.2 10.2c1.248 1.25 1.95 2.944 1.95 4.711s-0.701 3.461-1.95 4.711l-10.2 10.2c-0.414 0.411-0.973 0.642-1.556 0.645-0.292 0.002-0.582-0.054-0.853-0.165s-0.517-0.274-0.725-0.479c-0.208-0.207-0.374-0.452-0.486-0.723s-0.171-0.561-0.171-0.855 0.058-0.584 0.171-0.855c0.113-0.271 0.278-0.517 0.486-0.723l10.2-10.178z"></path>
</symbol>
</defs>
</svg>
